<svg xmlns="http://www.w3.org/2000/svg" xmlns:xlink="http://www.w3.org/1999/xlink" width="500" zoomAndPan="magnify" viewBox="0 0 375 97.5" height="130" preserveAspectRatio="xMidYMid meet" version="1.0"><defs><g/></defs><g fill="#0cc0df" fill-opacity="1"><g transform="translate(219.437366, 74.352234)"><g><path d="M 59.65625 -54.921875 C 60.769531 -54.921875 61.640625 -54.53125 62.265625 -53.75 C 62.898438 -52.976562 63.21875 -52.09375 63.21875 -51.09375 C 63.21875 -50.0625 62.804688 -49.113281 61.984375 -48.25 C 61.160156 -47.382812 59.84375 -46.910156 58.03125 -46.828125 L 42.8125 -46.828125 L 39.1875 -36.390625 L 42.546875 -36.390625 C 43.546875 -36.390625 44.320312 -36.007812 44.875 -35.25 C 45.4375 -34.5 45.71875 -33.648438 45.71875 -32.703125 C 45.71875 -31.628906 45.296875 -30.625 44.453125 -29.6875 C 43.617188 -28.757812 42.207031 -28.296875 40.21875 -28.296875 L 36.328125 -28.296875 C 35.515625 -26.054688 34.617188 -23.585938 33.640625 -20.890625 C 32.671875 -18.191406 31.796875 -15.695312 31.015625 -13.40625 C 29.804688 -9.945312 28.304688 -7.242188 26.515625 -5.296875 C 24.722656 -3.359375 22.769531 -1.988281 20.65625 -1.1875 C 18.539062 -0.394531 16.363281 0 14.125 0 C 11.3125 0 8.789062 -0.59375 6.5625 -1.78125 C 4.34375 -2.96875 2.609375 -4.5 1.359375 -6.375 C 0.109375 -8.257812 -0.515625 -10.210938 -0.515625 -12.234375 C -0.515625 -14.304688 0.0195312 -15.816406 1.09375 -16.765625 C 2.175781 -17.722656 3.363281 -18.203125 4.65625 -18.203125 C 5.914062 -18.203125 7.09375 -17.78125 8.1875 -16.9375 C 9.289062 -16.09375 9.84375 -14.914062 9.84375 -13.40625 C 9.84375 -12.976562 9.78125 -12.523438 9.65625 -12.046875 C 9.957031 -11.265625 10.492188 -10.550781 11.265625 -9.90625 C 12.046875 -9.257812 13.019531 -8.9375 14.1875 -8.9375 C 15.3125 -8.9375 16.359375 -9.117188 17.328125 -9.484375 C 18.296875 -9.847656 19.191406 -10.546875 20.015625 -11.578125 C 20.835938 -12.617188 21.613281 -14.15625 22.34375 -16.1875 L 26.6875 -28.234375 L 26.03125 -28.234375 C 24.476562 -28.234375 23.3125 -28.644531 22.53125 -29.46875 C 21.757812 -30.289062 21.375 -31.195312 21.375 -32.1875 C 21.375 -33.226562 21.804688 -34.1875 22.671875 -35.0625 C 23.535156 -35.945312 24.828125 -36.390625 26.546875 -36.390625 L 29.53125 -36.390625 L 33.484375 -46.828125 L 29.59375 -46.828125 C 28.425781 -46.828125 27.507812 -47.222656 26.84375 -48.015625 C 26.175781 -48.816406 25.84375 -49.691406 25.84375 -50.640625 C 25.84375 -51.679688 26.25 -52.65625 27.0625 -53.5625 C 27.882812 -54.46875 29.226562 -54.921875 31.09375 -54.921875 Z M 59.65625 -54.921875 "/></g></g></g><g fill="#0cc0df" fill-opacity="1"><g transform="translate(262.572958, 74.352234)"><g><path d="M 18.59375 -41.125 C 17.382812 -41.125 16.539062 -41.425781 16.0625 -42.03125 C 15.582031 -42.632812 15.863281 -43.539062 16.90625 -44.75 L 25.390625 -54.734375 C 26.035156 -55.460938 26.8125 -55.988281 27.71875 -56.3125 C 28.625 -56.632812 29.550781 -56.796875 30.5 -56.796875 C 31.707031 -56.796875 32.734375 -56.546875 33.578125 -56.046875 C 34.421875 -55.554688 34.960938 -54.972656 35.203125 -54.296875 C 35.441406 -53.628906 35.234375 -53.015625 34.578125 -52.453125 L 23.375 -42.6875 C 22.6875 -42.082031 21.898438 -41.671875 21.015625 -41.453125 C 20.128906 -41.234375 19.320312 -41.125 18.59375 -41.125 Z M 40.609375 -21.890625 C 41.554688 -21.890625 42.382812 -21.609375 43.09375 -21.046875 C 43.8125 -20.484375 44.171875 -19.640625 44.171875 -18.515625 C 44.171875 -17.960938 44.019531 -17.253906 43.71875 -16.390625 C 43.414062 -15.523438 43.023438 -14.46875 42.546875 -13.21875 C 41.171875 -9.71875 39.519531 -7.015625 37.59375 -5.109375 C 35.675781 -3.210938 33.691406 -1.882812 31.640625 -1.125 C 29.585938 -0.375 27.65625 0 25.84375 0 C 25.195312 0 24.320312 -0.0820312 23.21875 -0.25 C 22.113281 -0.425781 21.007812 -0.757812 19.90625 -1.25 C 18.8125 -1.75 17.921875 -2.5 17.234375 -3.5 C 16.023438 -2.414062 14.675781 -1.5625 13.1875 -0.9375 C 11.695312 -0.3125 10.191406 0 8.671875 0 C 6.773438 0 5.070312 -0.441406 3.5625 -1.328125 C 2.050781 -2.210938 0.851562 -3.398438 -0.03125 -4.890625 C -0.914062 -6.378906 -1.359375 -8.007812 -1.359375 -9.78125 C -1.359375 -10.382812 -1.289062 -10.976562 -1.15625 -11.5625 C -1.03125 -12.144531 -0.882812 -12.71875 -0.71875 -13.28125 L 5.375 -30.703125 C 6.238281 -33.203125 7.707031 -35.046875 9.78125 -36.234375 C 11.851562 -37.421875 13.945312 -38.015625 16.0625 -38.015625 C 17.695312 -38.015625 19.128906 -37.820312 20.359375 -37.4375 C 21.597656 -37.050781 22.5625 -36.640625 23.25 -36.203125 C 23.769531 -37.023438 24.460938 -37.640625 25.328125 -38.046875 C 26.191406 -38.460938 27.078125 -38.671875 27.984375 -38.671875 C 29.191406 -38.671875 30.28125 -38.300781 31.25 -37.5625 C 32.21875 -36.832031 32.703125 -35.753906 32.703125 -34.328125 C 32.703125 -33.679688 32.570312 -32.96875 32.3125 -32.1875 L 25.0625 -11.203125 C 24.84375 -10.421875 24.734375 -9.796875 24.734375 -9.328125 C 24.734375 -8.242188 25.316406 -7.703125 26.484375 -7.703125 C 27.484375 -7.703125 28.550781 -8.035156 29.6875 -8.703125 C 30.832031 -9.378906 31.96875 -10.492188 33.09375 -12.046875 C 34.21875 -13.597656 35.191406 -15.691406 36.015625 -18.328125 C 36.398438 -19.578125 37.035156 -20.484375 37.921875 -21.046875 C 38.804688 -21.609375 39.703125 -21.890625 40.609375 -21.890625 Z M 19.234375 -22.53125 C 19.753906 -24.175781 20.015625 -25.453125 20.015625 -26.359375 C 20.015625 -27.484375 19.734375 -28.335938 19.171875 -28.921875 C 18.609375 -29.503906 18.023438 -29.796875 17.421875 -29.796875 C 16.898438 -29.796875 16.238281 -29.546875 15.4375 -29.046875 C 14.644531 -28.546875 13.945312 -27.304688 13.34375 -25.328125 L 9.203125 -12.3125 C 9.109375 -12.007812 9.019531 -11.671875 8.9375 -11.296875 C 8.851562 -10.929688 8.8125 -10.535156 8.8125 -10.109375 C 8.8125 -8.503906 9.523438 -7.703125 10.953125 -7.703125 C 11.640625 -7.703125 12.5 -8.035156 13.53125 -8.703125 C 14.570312 -9.378906 15.4375 -10.773438 16.125 -12.890625 Z M 19.234375 -22.53125 "/></g></g></g><g fill="#0cc0df" fill-opacity="1"><g transform="translate(296.576235, 74.352234)"><g><path d="M 31.34375 -19.234375 C 31.6875 -20.179688 32.210938 -20.859375 32.921875 -21.265625 C 33.640625 -21.679688 34.410156 -21.890625 35.234375 -21.890625 C 36.222656 -21.890625 37.140625 -21.585938 37.984375 -20.984375 C 38.828125 -20.378906 39.25 -19.554688 39.25 -18.515625 C 39.25 -18.046875 39.160156 -17.617188 38.984375 -17.234375 C 37.609375 -13.296875 35.707031 -10.050781 33.28125 -7.5 C 30.863281 -4.957031 28.144531 -3.070312 25.125 -1.84375 C 22.101562 -0.613281 18.992188 0 15.796875 0 C 12.648438 0 9.867188 -0.546875 7.453125 -1.640625 C 5.035156 -2.742188 3.15625 -4.265625 1.8125 -6.203125 C 0.476562 -8.148438 -0.1875 -10.359375 -0.1875 -12.828125 C -0.1875 -14.296875 0.0664062 -15.804688 0.578125 -17.359375 L 4.28125 -28.234375 C 5.050781 -30.523438 6.125 -32.378906 7.5 -33.796875 C 8.882812 -35.222656 10.429688 -36.28125 12.140625 -36.96875 C 13.847656 -37.664062 15.546875 -38.015625 17.234375 -38.015625 C 19.085938 -38.015625 20.820312 -37.632812 22.4375 -36.875 C 24.0625 -36.125 25.367188 -35.035156 26.359375 -33.609375 C 27.347656 -32.179688 27.84375 -30.457031 27.84375 -28.4375 C 27.84375 -27.695312 27.773438 -26.925781 27.640625 -26.125 C 27.515625 -25.332031 27.28125 -24.503906 26.9375 -23.640625 C 26.375 -22.171875 25.628906 -21.113281 24.703125 -20.46875 C 23.773438 -19.820312 22.835938 -19.5 21.890625 -19.5 C 20.765625 -19.5 19.75 -19.882812 18.84375 -20.65625 C 17.9375 -21.4375 17.484375 -22.390625 17.484375 -23.515625 C 17.484375 -24.117188 17.65625 -24.765625 18 -25.453125 C 18.476562 -26.398438 18.71875 -27.195312 18.71875 -27.84375 C 18.71875 -28.40625 18.554688 -28.859375 18.234375 -29.203125 C 17.910156 -29.554688 17.425781 -29.734375 16.78125 -29.734375 C 16.257812 -29.734375 15.71875 -29.503906 15.15625 -29.046875 C 14.59375 -28.597656 14.160156 -27.984375 13.859375 -27.203125 L 9.90625 -16 C 9.644531 -15.175781 9.515625 -14.398438 9.515625 -13.671875 C 9.515625 -12.023438 10.171875 -10.628906 11.484375 -9.484375 C 12.804688 -8.335938 14.59375 -7.765625 16.84375 -7.765625 C 18.476562 -7.765625 20.203125 -8.140625 22.015625 -8.890625 C 23.828125 -9.648438 25.566406 -10.875 27.234375 -12.5625 C 28.898438 -14.25 30.269531 -16.472656 31.34375 -19.234375 Z M 31.34375 -19.234375 "/></g></g></g><g fill="#0cc0df" fill-opacity="1"><g transform="translate(325.527598, 74.352234)"><g><path d="M 17.421875 -43.96875 C 15.953125 -43.96875 14.695312 -44.5 13.65625 -45.5625 C 12.625 -46.625 12.109375 -47.882812 12.109375 -49.34375 C 12.109375 -50.8125 12.625 -52.050781 13.65625 -53.0625 C 14.695312 -54.082031 15.953125 -54.59375 17.421875 -54.59375 C 18.890625 -54.59375 20.140625 -54.082031 21.171875 -53.0625 C 22.210938 -52.050781 22.734375 -50.8125 22.734375 -49.34375 C 22.734375 -47.882812 22.210938 -46.625 21.171875 -45.5625 C 20.140625 -44.5 18.890625 -43.96875 17.421875 -43.96875 Z M 8.671875 -10.953125 C 8.546875 -10.554688 8.484375 -10.207031 8.484375 -9.90625 C 8.484375 -9.300781 8.707031 -8.78125 9.15625 -8.34375 C 9.613281 -7.914062 10.210938 -7.703125 10.953125 -7.703125 C 12.242188 -7.703125 13.695312 -8.5 15.3125 -10.09375 C 16.9375 -11.695312 18.503906 -14.59375 20.015625 -18.78125 C 20.398438 -19.769531 20.988281 -20.503906 21.78125 -20.984375 C 22.582031 -21.460938 23.414062 -21.703125 24.28125 -21.703125 C 25.28125 -21.703125 26.175781 -21.410156 26.96875 -20.828125 C 27.769531 -20.242188 28.171875 -19.453125 28.171875 -18.453125 C 28.171875 -18.066406 28.109375 -17.679688 27.984375 -17.296875 C 26.472656 -12.847656 24.734375 -9.359375 22.765625 -6.828125 C 20.796875 -4.304688 18.722656 -2.535156 16.546875 -1.515625 C 14.367188 -0.503906 12.222656 0 10.109375 0 C 8.117188 0 6.289062 -0.375 4.625 -1.125 C 2.96875 -1.882812 1.628906 -2.976562 0.609375 -4.40625 C -0.398438 -5.832031 -0.90625 -7.554688 -0.90625 -9.578125 C -0.90625 -10.140625 -0.796875 -10.8125 -0.578125 -11.59375 C -0.367188 -12.375 -0.175781 -13.085938 0 -13.734375 C 0.6875 -15.765625 1.429688 -17.921875 2.234375 -20.203125 C 3.035156 -22.492188 3.832031 -24.78125 4.625 -27.0625 C 5.425781 -29.351562 6.171875 -31.515625 6.859375 -33.546875 C 7.378906 -35.054688 8.125 -36.175781 9.09375 -36.90625 C 10.070312 -37.644531 11.054688 -38.015625 12.046875 -38.015625 C 13.171875 -38.015625 14.175781 -37.644531 15.0625 -36.90625 C 15.945312 -36.175781 16.390625 -35.097656 16.390625 -33.671875 C 16.390625 -33.367188 16.320312 -33 16.1875 -32.5625 C 16.0625 -32.132812 15.929688 -31.707031 15.796875 -31.28125 Z M 8.671875 -10.953125 "/></g></g></g><g fill="#0cc0df" fill-opacity="1"><g transform="translate(343.403608, 74.352234)"><g><path d="M 8.875 -10.5625 C 8.832031 -10.382812 8.773438 -10.1875 8.703125 -9.96875 C 8.640625 -9.757812 8.609375 -9.585938 8.609375 -9.453125 C 8.609375 -8.984375 8.78125 -8.570312 9.125 -8.21875 C 9.476562 -7.875 9.976562 -7.703125 10.625 -7.703125 C 12.132812 -7.703125 13.765625 -8.578125 15.515625 -10.328125 C 17.265625 -12.078125 18.875 -14.894531 20.34375 -18.78125 C 20.8125 -19.988281 21.429688 -20.851562 22.203125 -21.375 C 22.984375 -21.894531 23.785156 -22.15625 24.609375 -22.15625 C 25.597656 -22.15625 26.484375 -21.816406 27.265625 -21.140625 C 28.046875 -20.472656 28.4375 -19.625 28.4375 -18.59375 C 28.4375 -18.195312 28.367188 -17.765625 28.234375 -17.296875 C 26.722656 -12.804688 24.921875 -9.304688 22.828125 -6.796875 C 20.734375 -4.296875 18.5625 -2.535156 16.3125 -1.515625 C 14.070312 -0.503906 11.914062 0 9.84375 0 C 7.945312 0 6.1875 -0.351562 4.5625 -1.0625 C 2.945312 -1.78125 1.648438 -2.828125 0.671875 -4.203125 C -0.296875 -5.585938 -0.78125 -7.273438 -0.78125 -9.265625 C -0.78125 -10.597656 -0.519531 -12 0 -13.46875 L 13.46875 -51.9375 C 14.457031 -54.789062 16.164062 -56.21875 18.59375 -56.21875 C 19.582031 -56.21875 20.539062 -55.847656 21.46875 -55.109375 C 22.394531 -54.378906 22.859375 -53.390625 22.859375 -52.140625 C 22.859375 -51.441406 22.726562 -50.707031 22.46875 -49.9375 Z M 8.875 -10.5625 "/></g></g></g><g fill="#05445e" fill-opacity="1"><g transform="translate(2.624392, 74.733428)"><g><path d="M 15.015625 0.5 C 11.054688 0.5 7.890625 -0.738281 5.515625 -3.21875 C 3.140625 -5.695312 1.953125 -9.101562 1.953125 -13.4375 L 1.953125 -38.40625 C 1.953125 -43.789062 3.023438 -47.847656 5.171875 -50.578125 C 7.316406 -53.304688 10.679688 -54.671875 15.265625 -54.671875 C 19.253906 -54.671875 22.46875 -53.578125 24.90625 -51.390625 C 27.34375 -49.203125 28.5625 -46.050781 28.5625 -41.9375 L 28.5625 -32.609375 L 17.78125 -32.609375 L 17.78125 -40.609375 C 17.78125 -42.171875 17.59375 -43.242188 17.21875 -43.828125 C 16.84375 -44.421875 16.191406 -44.71875 15.265625 -44.71875 C 14.296875 -44.71875 13.628906 -44.378906 13.265625 -43.703125 C 12.910156 -43.023438 12.734375 -42.035156 12.734375 -40.734375 L 12.734375 -13.5625 C 12.734375 -12.132812 12.941406 -11.09375 13.359375 -10.4375 C 13.785156 -9.78125 14.421875 -9.453125 15.265625 -9.453125 C 16.941406 -9.453125 17.78125 -10.820312 17.78125 -13.5625 L 17.78125 -23.328125 L 28.6875 -23.328125 L 28.6875 -13.109375 C 28.6875 -4.035156 24.128906 0.5 15.015625 0.5 Z M 15.015625 0.5 "/></g></g></g><g fill="#05445e" fill-opacity="1"><g transform="translate(32.510501, 74.733428)"><g><path d="M 11.09375 0.5 C 7.644531 0.5 5.28125 -0.523438 4 -2.578125 C 2.71875 -4.640625 2.078125 -7.710938 2.078125 -11.796875 L 2.078125 -46.15625 L 13.1875 -46.15625 L 13.1875 -14 C 13.1875 -13.707031 13.1875 -12.921875 13.1875 -11.640625 C 13.1875 -10.359375 13.382812 -9.453125 13.78125 -8.921875 C 14.175781 -8.398438 14.796875 -8.140625 15.640625 -8.140625 C 16.773438 -8.140625 17.488281 -8.609375 17.78125 -9.546875 C 18.070312 -10.492188 18.21875 -11.851562 18.21875 -13.625 L 18.21875 -14 L 18.28125 -46.15625 L 29.265625 -46.15625 L 29.265625 0 L 18.21875 0 L 18.21875 -4.921875 C 17.46875 -2.984375 16.585938 -1.59375 15.578125 -0.75 C 14.566406 0.0820312 13.070312 0.5 11.09375 0.5 Z M 11.09375 0.5 "/></g></g></g><g fill="#05445e" fill-opacity="1"><g transform="translate(63.972883, 74.733428)"><g><path d="M 2.203125 -46.15625 L 13.25 -46.15625 L 13.25 -41.046875 C 13.789062 -42.859375 14.742188 -44.257812 16.109375 -45.25 C 17.472656 -46.238281 19.164062 -46.734375 21.1875 -46.734375 L 21.1875 -37.515625 C 19.632812 -37.515625 17.921875 -37.296875 16.046875 -36.859375 C 14.179688 -36.421875 13.25 -35.90625 13.25 -35.3125 L 13.25 0 L 2.203125 0 Z M 2.203125 -46.15625 "/></g></g></g><g fill="#05445e" fill-opacity="1"><g transform="translate(85.662381, 74.733428)"><g><path d="M 2.203125 -46.15625 L 13.25 -46.15625 L 13.25 -41.046875 C 13.789062 -42.859375 14.742188 -44.257812 16.109375 -45.25 C 17.472656 -46.238281 19.164062 -46.734375 21.1875 -46.734375 L 21.1875 -37.515625 C 19.632812 -37.515625 17.921875 -37.296875 16.046875 -36.859375 C 14.179688 -36.421875 13.25 -35.90625 13.25 -35.3125 L 13.25 0 L 2.203125 0 Z M 2.203125 -46.15625 "/></g></g></g><g fill="#05445e" fill-opacity="1"><g transform="translate(107.35188, 74.733428)"><g><path d="M 1.890625 0 L 1.890625 -46.15625 L 12.921875 -46.15625 L 12.921875 0 Z M 0.0625 -47.796875 L 0.0625 -54.671875 L 14.6875 -61.421875 L 14.6875 -50.703125 Z M 0.0625 -47.796875 "/></g></g></g><g fill="#05445e" fill-opacity="1"><g transform="translate(122.168834, 74.733428)"><g><path d="M 16.078125 0.5 C 11.035156 0.5 7.398438 -0.78125 5.171875 -3.34375 C 2.941406 -5.90625 1.828125 -9.835938 1.828125 -15.140625 L 1.828125 -29.390625 C 1.828125 -33.378906 2.257812 -36.625 3.125 -39.125 C 3.988281 -41.625 5.4375 -43.503906 7.46875 -44.765625 C 9.507812 -46.035156 12.335938 -46.671875 15.953125 -46.671875 C 19.898438 -46.671875 23.113281 -45.640625 25.59375 -43.578125 C 28.082031 -41.515625 29.328125 -38.632812 29.328125 -34.9375 L 29.328125 -27.875 L 18.09375 -27.875 L 18.09375 -34.375 C 18.09375 -35.59375 17.925781 -36.523438 17.59375 -37.171875 C 17.257812 -37.828125 16.609375 -38.15625 15.640625 -38.15625 C 13.828125 -38.15625 12.921875 -36.875 12.921875 -34.3125 L 12.921875 -11.921875 C 12.921875 -10.867188 13.140625 -9.972656 13.578125 -9.234375 C 14.023438 -8.503906 14.691406 -8.140625 15.578125 -8.140625 C 16.460938 -8.140625 17.125 -8.492188 17.5625 -9.203125 C 18 -9.921875 18.195312 -10.847656 18.15625 -11.984375 L 18.09375 -19.734375 L 29.328125 -19.734375 L 29.328125 -11.671875 C 29.328125 -7.878906 28.097656 -4.898438 25.640625 -2.734375 C 23.179688 -0.578125 19.992188 0.5 16.078125 0.5 Z M 16.078125 0.5 "/></g></g></g><g fill="#05445e" fill-opacity="1"><g transform="translate(153.126801, 74.733428)"><g><path d="M 11.09375 0.5 C 7.644531 0.5 5.28125 -0.523438 4 -2.578125 C 2.71875 -4.640625 2.078125 -7.710938 2.078125 -11.796875 L 2.078125 -46.15625 L 13.1875 -46.15625 L 13.1875 -14 C 13.1875 -13.707031 13.1875 -12.921875 13.1875 -11.640625 C 13.1875 -10.359375 13.382812 -9.453125 13.78125 -8.921875 C 14.175781 -8.398438 14.796875 -8.140625 15.640625 -8.140625 C 16.773438 -8.140625 17.488281 -8.609375 17.78125 -9.546875 C 18.070312 -10.492188 18.21875 -11.851562 18.21875 -13.625 L 18.21875 -14 L 18.28125 -46.15625 L 29.265625 -46.15625 L 29.265625 0 L 18.21875 0 L 18.21875 -4.921875 C 17.46875 -2.984375 16.585938 -1.59375 15.578125 -0.75 C 14.566406 0.0820312 13.070312 0.5 11.09375 0.5 Z M 11.09375 0.5 "/></g></g></g><g fill="#05445e" fill-opacity="1"><g transform="translate(184.589176, 74.733428)"><g><path d="M 2.203125 0 L 2.203125 -54.484375 L 13.4375 -54.484375 L 13.4375 0 Z M 2.203125 0 "/></g></g></g><g fill="#05445e" fill-opacity="1"><g transform="translate(200.225795, 74.733428)"><g><path d="M 15.640625 0.5 C 6.429688 0.5 1.828125 -4.269531 1.828125 -13.8125 L 1.828125 -32.34375 C 1.828125 -36.71875 3.054688 -40.195312 5.515625 -42.78125 C 7.972656 -45.375 11.347656 -46.671875 15.640625 -46.671875 C 19.929688 -46.671875 23.304688 -45.375 25.765625 -42.78125 C 28.222656 -40.195312 29.453125 -36.71875 29.453125 -32.34375 L 29.453125 -13.8125 C 29.453125 -4.269531 24.847656 0.5 15.640625 0.5 Z M 15.640625 -8.015625 C 16.523438 -8.015625 17.175781 -8.328125 17.59375 -8.953125 C 18.007812 -9.585938 18.21875 -10.453125 18.21875 -11.546875 L 18.21875 -34.109375 C 18.21875 -36.804688 17.359375 -38.15625 15.640625 -38.15625 C 13.910156 -38.15625 13.046875 -36.804688 13.046875 -34.109375 L 13.046875 -11.546875 C 13.046875 -10.453125 13.253906 -9.585938 13.671875 -8.953125 C 14.097656 -8.328125 14.753906 -8.015625 15.640625 -8.015625 Z M 15.640625 -8.015625 "/></g></g></g></svg>