<svg xmlns="http://www.w3.org/2000/svg" xmlns:xlink="http://www.w3.org/1999/xlink" width="1024" zoomAndPan="magnify" viewBox="0 0 768 767.999994" height="1024" preserveAspectRatio="xMidYMid meet" version="1.0"><defs><g/></defs><g fill="#495972" fill-opacity="1"><g transform="translate(25.706634, 441.683683)"><g><path d="M 31.28125 1.046875 C 23.039062 1.046875 16.445312 -1.535156 11.5 -6.703125 C 6.550781 -11.867188 4.078125 -18.96875 4.078125 -28 L 4.078125 -80.0625 C 4.078125 -91.269531 6.3125 -99.722656 10.78125 -105.421875 C 15.25 -111.117188 22.257812 -113.96875 31.8125 -113.96875 C 40.132812 -113.96875 46.835938 -111.6875 51.921875 -107.125 C 57.003906 -102.570312 59.546875 -96.003906 59.546875 -87.421875 L 59.546875 -67.96875 L 37.0625 -67.96875 L 37.0625 -84.65625 C 37.0625 -87.894531 36.664062 -90.128906 35.875 -91.359375 C 35.09375 -92.585938 33.738281 -93.203125 31.8125 -93.203125 C 29.789062 -93.203125 28.40625 -92.5 27.65625 -91.09375 C 26.914062 -89.695312 26.546875 -87.640625 26.546875 -84.921875 L 26.546875 -28.265625 C 26.546875 -25.285156 26.984375 -23.113281 27.859375 -21.75 C 28.742188 -20.394531 30.0625 -19.71875 31.8125 -19.71875 C 35.3125 -19.71875 37.0625 -22.566406 37.0625 -28.265625 L 37.0625 -48.640625 L 59.8125 -48.640625 L 59.8125 -27.34375 C 59.8125 -8.414062 50.300781 1.046875 31.28125 1.046875 Z M 31.28125 1.046875 "/></g></g></g><g fill="#495972" fill-opacity="1"><g transform="translate(88.014955, 441.683683)"><g><path d="M 23.140625 1.046875 C 15.953125 1.046875 11.019531 -1.097656 8.34375 -5.390625 C 5.675781 -9.679688 4.34375 -16.078125 4.34375 -24.578125 L 4.34375 -96.21875 L 27.46875 -96.21875 L 27.46875 -29.1875 C 27.46875 -28.570312 27.46875 -26.925781 27.46875 -24.25 C 27.46875 -21.582031 27.882812 -19.695312 28.71875 -18.59375 C 29.550781 -17.5 30.84375 -16.953125 32.59375 -16.953125 C 34.96875 -16.953125 36.457031 -17.9375 37.0625 -19.90625 C 37.675781 -21.882812 37.984375 -24.710938 37.984375 -28.390625 L 37.984375 -29.1875 L 38.125 -96.21875 L 61 -96.21875 L 61 0 L 37.984375 0 L 37.984375 -10.25 C 36.410156 -6.21875 34.570312 -3.328125 32.46875 -1.578125 C 30.363281 0.171875 27.253906 1.046875 23.140625 1.046875 Z M 23.140625 1.046875 "/></g></g></g><g fill="#495972" fill-opacity="1"><g transform="translate(153.609588, 441.683683)"><g><path d="M 4.59375 -96.21875 L 27.609375 -96.21875 L 27.609375 -85.578125 C 28.742188 -89.347656 30.734375 -92.257812 33.578125 -94.3125 C 36.429688 -96.375 39.960938 -97.40625 44.171875 -97.40625 L 44.171875 -78.21875 C 40.921875 -78.21875 37.347656 -77.753906 33.453125 -76.828125 C 29.554688 -75.910156 27.609375 -74.835938 27.609375 -73.609375 L 27.609375 0 L 4.59375 0 Z M 4.59375 -96.21875 "/></g></g></g><g fill="#495972" fill-opacity="1"><g transform="translate(198.829132, 441.683683)"><g><path d="M 4.59375 -96.21875 L 27.609375 -96.21875 L 27.609375 -85.578125 C 28.742188 -89.347656 30.734375 -92.257812 33.578125 -94.3125 C 36.429688 -96.375 39.960938 -97.40625 44.171875 -97.40625 L 44.171875 -78.21875 C 40.921875 -78.21875 37.347656 -77.753906 33.453125 -76.828125 C 29.554688 -75.910156 27.609375 -74.835938 27.609375 -73.609375 L 27.609375 0 L 4.59375 0 Z M 4.59375 -96.21875 "/></g></g></g><g fill="#495972" fill-opacity="1"><g transform="translate(244.048676, 441.683683)"><g><path d="M 3.9375 0 L 3.9375 -96.21875 L 26.953125 -96.21875 L 26.953125 0 Z M 0.125 -99.640625 L 0.125 -113.96875 L 30.625 -128.03125 L 30.625 -105.6875 Z M 0.125 -99.640625 "/></g></g></g><g fill="#495972" fill-opacity="1"><g transform="translate(274.939937, 441.683683)"><g><path d="M 33.515625 1.046875 C 23.003906 1.046875 15.425781 -1.625 10.78125 -6.96875 C 6.132812 -12.3125 3.8125 -20.503906 3.8125 -31.546875 L 3.8125 -61.25 C 3.8125 -69.582031 4.707031 -76.351562 6.5 -81.5625 C 8.300781 -86.78125 11.328125 -90.703125 15.578125 -93.328125 C 19.828125 -95.960938 25.71875 -97.28125 33.25 -97.28125 C 41.488281 -97.28125 48.191406 -95.128906 53.359375 -90.828125 C 58.535156 -86.535156 61.125 -80.535156 61.125 -72.828125 L 61.125 -58.109375 L 37.734375 -58.109375 L 37.734375 -71.640625 C 37.734375 -74.179688 37.378906 -76.128906 36.671875 -77.484375 C 35.972656 -78.847656 34.613281 -79.53125 32.59375 -79.53125 C 28.832031 -79.53125 26.953125 -76.859375 26.953125 -71.515625 L 26.953125 -24.84375 C 26.953125 -22.65625 27.410156 -20.789062 28.328125 -19.25 C 29.242188 -17.71875 30.625 -16.953125 32.46875 -16.953125 C 34.3125 -16.953125 35.691406 -17.695312 36.609375 -19.1875 C 37.523438 -20.675781 37.941406 -22.601562 37.859375 -24.96875 L 37.734375 -41.140625 L 61.125 -41.140625 L 61.125 -24.3125 C 61.125 -16.425781 58.5625 -10.226562 53.4375 -5.71875 C 48.3125 -1.207031 41.671875 1.046875 33.515625 1.046875 Z M 33.515625 1.046875 "/></g></g></g><g fill="#495972" fill-opacity="1"><g transform="translate(339.482968, 441.683683)"><g><path d="M 23.140625 1.046875 C 15.953125 1.046875 11.019531 -1.097656 8.34375 -5.390625 C 5.675781 -9.679688 4.34375 -16.078125 4.34375 -24.578125 L 4.34375 -96.21875 L 27.46875 -96.21875 L 27.46875 -29.1875 C 27.46875 -28.570312 27.46875 -26.925781 27.46875 -24.25 C 27.46875 -21.582031 27.882812 -19.695312 28.71875 -18.59375 C 29.550781 -17.5 30.84375 -16.953125 32.59375 -16.953125 C 34.96875 -16.953125 36.457031 -17.9375 37.0625 -19.90625 C 37.675781 -21.882812 37.984375 -24.710938 37.984375 -28.390625 L 37.984375 -29.1875 L 38.125 -96.21875 L 61 -96.21875 L 61 0 L 37.984375 0 L 37.984375 -10.25 C 36.410156 -6.21875 34.570312 -3.328125 32.46875 -1.578125 C 30.363281 0.171875 27.253906 1.046875 23.140625 1.046875 Z M 23.140625 1.046875 "/></g></g></g><g fill="#495972" fill-opacity="1"><g transform="translate(405.077617, 441.683683)"><g><path d="M 4.59375 0 L 4.59375 -113.578125 L 28 -113.578125 L 28 0 Z M 4.59375 0 "/></g></g></g><g fill="#495972" fill-opacity="1"><g transform="translate(437.677771, 441.683683)"><g><path d="M 32.59375 1.046875 C 13.40625 1.046875 3.8125 -8.894531 3.8125 -28.78125 L 3.8125 -67.4375 C 3.8125 -76.550781 6.375 -83.800781 11.5 -89.1875 C 16.625 -94.582031 23.65625 -97.28125 32.59375 -97.28125 C 41.539062 -97.28125 48.578125 -94.582031 53.703125 -89.1875 C 58.828125 -83.800781 61.390625 -76.550781 61.390625 -67.4375 L 61.390625 -28.78125 C 61.390625 -8.894531 51.789062 1.046875 32.59375 1.046875 Z M 32.59375 -16.6875 C 34.4375 -16.6875 35.796875 -17.34375 36.671875 -18.65625 C 37.546875 -19.976562 37.984375 -21.78125 37.984375 -24.0625 L 37.984375 -71.109375 C 37.984375 -76.722656 36.1875 -79.53125 32.59375 -79.53125 C 29 -79.53125 27.203125 -76.722656 27.203125 -71.109375 L 27.203125 -24.0625 C 27.203125 -21.78125 27.640625 -19.976562 28.515625 -18.65625 C 29.398438 -17.34375 30.757812 -16.6875 32.59375 -16.6875 Z M 32.59375 -16.6875 "/></g></g></g><g fill="#0cc0df" fill-opacity="1"><g transform="translate(501.463114, 439.704197)"><g><path d="M 92.09375 -111.09375 C 94.363281 -111.09375 96.128906 -110.304688 97.390625 -108.734375 C 98.660156 -107.160156 99.296875 -105.367188 99.296875 -103.359375 C 99.296875 -101.265625 98.460938 -99.300781 96.796875 -97.46875 C 95.140625 -95.632812 92.476562 -94.71875 88.8125 -94.71875 L 67.46875 -94.71875 L 36.9375 -7.34375 C 36.0625 -4.894531 34.640625 -3.054688 32.671875 -1.828125 C 30.710938 -0.609375 28.597656 0 26.328125 0 C 23.878906 0 21.628906 -0.738281 19.578125 -2.21875 C 17.523438 -3.707031 16.5 -5.804688 16.5 -8.515625 C 16.5 -9.035156 16.539062 -9.625 16.625 -10.28125 C 16.71875 -10.9375 16.894531 -11.570312 17.15625 -12.1875 L 45.84375 -94.71875 L 25.546875 -94.71875 C 23.191406 -94.71875 21.335938 -95.523438 19.984375 -97.140625 C 18.628906 -98.753906 17.953125 -100.519531 17.953125 -102.4375 C 17.953125 -104.539062 18.78125 -106.484375 20.4375 -108.265625 C 22.09375 -110.054688 24.800781 -111 28.5625 -111.09375 Z M 92.09375 -111.09375 "/></g></g></g><g fill="#0cc0df" fill-opacity="1"><g transform="translate(579.796396, 439.704197)"><g><path d="M 55.40625 -27.375 C 55.675781 -27.289062 55.984375 -27.25 56.328125 -27.25 C 56.679688 -27.25 56.988281 -27.25 57.25 -27.25 C 61.09375 -27.25 64.472656 -28.535156 67.390625 -31.109375 C 70.316406 -33.691406 72.484375 -36.988281 73.890625 -41 C 74.585938 -43.445312 75.765625 -45.21875 77.421875 -46.3125 C 79.078125 -47.40625 80.78125 -47.953125 82.53125 -47.953125 C 84.445312 -47.953125 86.144531 -47.296875 87.625 -45.984375 C 89.113281 -44.671875 89.859375 -42.789062 89.859375 -40.34375 C 89.859375 -39.300781 89.644531 -37.992188 89.21875 -36.421875 C 87.726562 -31.878906 85.453125 -27.726562 82.390625 -23.96875 C 79.335938 -20.21875 75.648438 -17.226562 71.328125 -15 C 67.003906 -12.769531 62.265625 -11.65625 57.109375 -11.65625 C 54.410156 -11.65625 51.789062 -12.003906 49.25 -12.703125 C 46.539062 -7.992188 42.984375 -4.695312 38.578125 -2.8125 C 34.171875 -0.9375 29.390625 0 24.234375 0 C 19.773438 0 15.644531 -0.867188 11.84375 -2.609375 C 8.050781 -4.359375 4.972656 -6.894531 2.609375 -10.21875 C 0.253906 -13.539062 -0.921875 -17.472656 -0.921875 -22.015625 C -0.921875 -23.492188 -0.785156 -25.019531 -0.515625 -26.59375 C -0.253906 -28.164062 0.175781 -29.78125 0.78125 -31.4375 L 10.34375 -58.421875 C 11.738281 -62.359375 13.878906 -65.703125 16.765625 -68.453125 C 19.648438 -71.203125 22.96875 -73.296875 26.71875 -74.734375 C 30.476562 -76.171875 34.410156 -76.890625 38.515625 -76.890625 C 43.234375 -76.890625 47.488281 -75.972656 51.28125 -74.140625 C 55.082031 -72.304688 58.097656 -69.707031 60.328125 -66.34375 C 62.554688 -62.988281 63.671875 -59.082031 63.671875 -54.625 C 63.671875 -52.875 63.316406 -50.644531 62.609375 -47.9375 C 61.910156 -45.238281 61.082031 -42.644531 60.125 -40.15625 C 59.164062 -37.664062 58.296875 -35.851562 57.515625 -34.71875 C 56.640625 -33.40625 55.765625 -32.441406 54.890625 -31.828125 C 55.148438 -30.609375 55.300781 -29.539062 55.34375 -28.625 C 55.382812 -27.707031 55.40625 -27.289062 55.40625 -27.375 Z M 43.234375 -47.546875 C 43.671875 -48.953125 44.0625 -50.375 44.40625 -51.8125 C 44.757812 -53.25 44.9375 -54.535156 44.9375 -55.671875 C 44.9375 -57.160156 44.320312 -58.492188 43.09375 -59.671875 C 41.875 -60.847656 40.257812 -61.4375 38.25 -61.4375 C 36.238281 -61.4375 34.226562 -60.847656 32.21875 -59.671875 C 30.21875 -58.492188 28.820312 -56.8125 28.03125 -54.625 L 18.734375 -28.03125 C 18.472656 -27.414062 18.207031 -26.539062 17.9375 -25.40625 C 17.675781 -24.28125 17.546875 -23.101562 17.546875 -21.875 C 17.546875 -20.300781 17.984375 -18.859375 18.859375 -17.546875 C 19.734375 -16.242188 21.4375 -15.59375 23.96875 -15.59375 C 25.976562 -15.59375 27.851562 -16.160156 29.59375 -17.296875 C 31.34375 -18.429688 32.65625 -20.132812 33.53125 -22.40625 C 32.3125 -23.445312 31.21875 -24.644531 30.25 -26 C 29.289062 -27.351562 28.769531 -29.125 28.6875 -31.3125 C 28.6875 -33.925781 29.316406 -36.257812 30.578125 -38.3125 C 31.847656 -40.363281 33.53125 -41.9375 35.625 -43.03125 C 37.726562 -44.125 39.957031 -44.539062 42.3125 -44.28125 C 42.394531 -44.800781 42.523438 -45.320312 42.703125 -45.84375 C 42.878906 -46.375 43.054688 -46.941406 43.234375 -47.546875 Z M 43.234375 -47.546875 "/></g></g></g><g fill="#0cc0df" fill-opacity="1"><g transform="translate(648.174281, 439.704197)"><g><path d="M 71.390625 -37.734375 C 72.179688 -40.265625 73.445312 -42.097656 75.1875 -43.234375 C 76.9375 -44.367188 78.6875 -44.9375 80.4375 -44.9375 C 82.445312 -44.9375 84.210938 -44.320312 85.734375 -43.09375 C 87.265625 -41.875 88.03125 -40.171875 88.03125 -37.984375 C 88.03125 -37.203125 87.8125 -36.15625 87.375 -34.84375 C 83.09375 -22.445312 76.367188 -13.539062 67.203125 -8.125 C 58.035156 -2.707031 47.078125 0 34.328125 0 C 23.316406 0 15.71875 -1.613281 11.53125 -4.84375 L 1.046875 26.203125 C 0.265625 28.648438 -1.082031 30.414062 -3 31.5 C -4.925781 32.59375 -6.984375 33.140625 -9.171875 33.140625 C -11.523438 33.140625 -13.640625 32.460938 -15.515625 31.109375 C -17.398438 29.753906 -18.34375 27.722656 -18.34375 25.015625 C -18.34375 23.617188 -18.035156 22.132812 -17.421875 20.5625 L 15.203125 -71.65625 C 16.160156 -74.445312 17.597656 -76.453125 19.515625 -77.671875 C 21.441406 -78.898438 23.492188 -79.515625 25.671875 -79.515625 C 28.035156 -79.515625 30.132812 -78.96875 31.96875 -77.875 C 33.800781 -76.78125 34.628906 -75.453125 34.453125 -73.890625 C 35.941406 -75.109375 37.644531 -75.910156 39.5625 -76.296875 C 41.476562 -76.691406 43.3125 -76.890625 45.0625 -76.890625 C 48.46875 -76.890625 51.609375 -75.992188 54.484375 -74.203125 C 57.367188 -72.421875 59.6875 -70.046875 61.4375 -67.078125 C 63.1875 -64.109375 64.0625 -60.832031 64.0625 -57.25 C 64.0625 -54.976562 63.664062 -52.707031 62.875 -50.4375 C 61.039062 -45.375 59.1875 -40.195312 57.3125 -34.90625 C 55.4375 -29.625 53.582031 -24.492188 51.75 -19.515625 L 50.5625 -16.765625 C 55.101562 -18.421875 59.1875 -20.992188 62.8125 -24.484375 C 66.4375 -27.984375 69.296875 -32.398438 71.390625 -37.734375 Z M 18.46875 -24.109375 C 18.125 -23.140625 17.953125 -22.132812 17.953125 -21.09375 C 17.953125 -19.257812 18.539062 -17.882812 19.71875 -16.96875 C 20.894531 -16.050781 22.3125 -15.59375 23.96875 -15.59375 C 25.71875 -15.675781 27.398438 -16.285156 29.015625 -17.421875 C 30.628906 -18.554688 31.785156 -20.085938 32.484375 -22.015625 C 34.234375 -27.160156 36.003906 -32.203125 37.796875 -37.140625 C 39.585938 -42.078125 41.3125 -47.117188 42.96875 -52.265625 C 43.40625 -53.753906 43.625 -54.976562 43.625 -55.9375 C 43.625 -57.59375 43.007812 -58.921875 41.78125 -59.921875 C 40.5625 -60.929688 39.164062 -61.4375 37.59375 -61.4375 C 35.757812 -61.4375 34.054688 -60.867188 32.484375 -59.734375 C 30.910156 -58.597656 29.734375 -56.851562 28.953125 -54.5 Z M 18.46875 -24.109375 "/></g></g></g></svg>